<svg xmlns="http://www.w3.org/2000/svg" viewBox="0 0 48 48" fill="none">
  <defs>
    <linearGradient id="s" x1="4" y1="6" x2="44" y2="42" gradientUnits="userSpaceOnUse">
      <stop offset="0%" stop-color="#06B6D4"/>
      <stop offset="55%" stop-color="#3B82F6"/>
      <stop offset="100%" stop-color="#8B5CF6"/>
    </linearGradient>
    <linearGradient id="c" x1="18" y1="18" x2="30" y2="30" gradientUnits="userSpaceOnUse">
      <stop offset="0%" stop-color="#67E8F9"/>
      <stop offset="60%" stop-color="#60A5FA"/>
      <stop offset="100%" stop-color="#A78BFA"/>
    </linearGradient>
  </defs>
  <rect width="48" height="48" rx="11" fill="#0B0F17"/>
  <path d="M24 5.6 L38.6 13.5 a3.6 3.6 0 0 1 1.9 3.2 v14.6 a3.6 3.6 0 0 1-1.9 3.2 L24 42.4 a3.6 3.6 0 0 1-3.6 0 L9.4 34.5 a3.6 3.6 0 0 1-1.9-3.2 V16.7 a3.6 3.6 0 0 1 1.9-3.2 Z" stroke="url(#s)" stroke-width="1.6" stroke-linejoin="round"/>
  <g stroke="url(#s)" stroke-width="1.3" stroke-linecap="round" opacity="0.9">
    <line x1="24" y1="24" x2="24" y2="11"/>
    <line x1="24" y1="24" x2="36" y2="17"/>
    <line x1="24" y1="24" x2="36" y2="31"/>
    <line x1="24" y1="24" x2="24" y2="37"/>
    <line x1="24" y1="24" x2="12" y2="31"/>
    <line x1="24" y1="24" x2="12" y2="17"/>
  </g>
  <g fill="url(#s)">
    <circle cx="24" cy="11" r="2"/>
    <circle cx="36" cy="17" r="2"/>
    <circle cx="36" cy="31" r="2"/>
    <circle cx="24" cy="37" r="2"/>
    <circle cx="12" cy="31" r="2"/>
    <circle cx="12" cy="17" r="2"/>
  </g>
  <circle cx="24" cy="24" r="5.2" fill="url(#c)"/>
  <circle cx="24" cy="24" r="1.6" fill="#F8FAFC"/>
</svg>
